<svg version="1" xmlns="http://www.w3.org/2000/svg" width="666.667" height="666.667" viewBox="0 0 500.000000 500.000000"><path d="M239 .7C174.9 3.9 116.6 30 71.9 75.7 53.5 94.5 40.8 111.9 29 134.2 10.1 170.4.8 208.5.8 250s9.3 79.6 28.2 115.8c11.8 22.3 24.5 39.7 42.9 58.5C112.7 466 163.8 491 222.5 498c5.5.7 17.9 1.2 27.5 1.2 9.6 0 22-.5 27.5-1.2 58.7-7 109.8-32 150.6-73.7 18.4-18.8 31.1-36.2 42.9-58.5 18.9-36.2 28.2-74.3 28.2-115.8s-9.3-79.6-28.2-115.8c-11.8-22.3-24.5-39.7-42.9-58.5C382.2 28.7 323.4 3 257 .7c-6.3-.2-14.4-.2-18 0zm24.2 32.1c6.5 2.8 13.3 9.4 16.5 16.1 3.7 7.4 3.9 19 .6 26.3-4.5 9.7-14.9 17.8-25 19.4-3.1.5-4.3 1.2-4.7 2.8-1.7 7.4-17.6 92-17.4 92.8.2.5 3.9 2.3 8.3 4.1 17.4 7 33 21 41.5 37.1 1.4 2.5 2.9 4.6 3.4 4.6.8 0 26.6-9.1 55.6-19.6 5.2-1.9 19.4-7 31.5-11.3l22-7.9.8-6.7c.4-3.7 1.6-8.7 2.6-11.1 2.8-6.1 9.5-12.9 16-16.1 4.7-2.3 6.9-2.8 13.6-2.8 6.7 0 8.9.4 13.6 2.8 6.6 3.2 13.2 9.9 16.2 16.5s3 18.8 0 25.4c-3 6.6-9.6 13.3-16.2 16.5-4.7 2.4-6.9 2.8-13.6 2.8-6.7 0-8.9-.5-13.6-2.8-3.1-1.5-7.5-4.8-9.8-7.2-2.3-2.5-4.5-4.5-4.9-4.5-1 0-109.2 38.7-109.8 39.2-.2.3.1 2 .7 3.9 1.8 6.3 2.2 22.8.6 31.4-1.8 9.9-6.5 22.3-11.2 29.3-1.9 3-3.5 5.5-3.5 5.7 0 .3 58.9 51.7 62.2 54.3 1.5 1.2 2.5 1 7.5-1.4 7.6-3.8 19.2-4.1 26.5-.7 6.6 3 13.3 9.6 16.5 16.2 3.7 7.4 3.9 19 .6 26.3-3 6.6-9.6 13.3-16.2 16.5-4.7 2.4-6.9 2.8-13.6 2.8-6.7 0-8.9-.5-13.6-2.8-16.3-8-22.9-26.6-15.5-43.7.5-1.2-7.1-8.4-29.1-27.5-16.3-14.3-30.7-26.8-32-27.8-2.2-1.8-2.3-1.7-8.5 3.1-12.3 9.6-25 15.1-39.8 17.3-13.3 1.9-31.3-.4-43.1-5.5-1.4-.6-3.3 2.2-9.9 14.5-5.6 10.1-8 15.6-7.4 16.4.5.7 2.4 3.2 4.2 5.5 11.8 15.6 5.6 38.7-12.7 47.7-4.7 2.4-6.9 2.8-13.6 2.8-6.7 0-8.9-.5-13.6-2.8-6.6-3.2-13.2-9.9-16.2-16.5-3.3-7.3-3-19 .6-26.3 3.2-6.7 9.9-13.2 16.5-16.2 3.6-1.6 6.8-2.1 13.6-2.2l8.9-.1 8-14.8 8-14.9-3.9-3c-27.7-21.4-39.6-56.8-29.9-88.8 1.5-4.6 2.8-9.3 3.1-10.4.4-1.7-2.4-3.6-19.1-12.8l-19.6-10.8-3.6 3.2c-6.3 5.4-11.8 7.4-20.8 7.3-5.9 0-9.2-.5-12.7-2.1-6.6-3-13.3-9.5-16.5-16.2-3.6-7.3-3.9-19-.6-26.3 3-6.6 9.6-13.3 16.2-16.5 7.4-3.7 19.1-3.9 26.3-.6 6.6 3 13.3 9.6 16.5 16.2 2.5 4.9 2.8 6.7 2.8 14.8l-.1 9.1 18.5 10.4c10.2 5.7 19.1 10.3 19.7 10.3.6 0 3.3-2.6 5.9-5.8 6.3-7.7 17.8-16.8 26.8-21.1 10.7-5.2 20.6-7.6 33.8-8.3l11.6-.6 3.2-17.1c1.8-9.4 6-30.8 9.2-47.5 3.3-16.7 5.8-30.5 5.7-30.6-.2-.1-1.9-1.1-4-2.3-4.9-3-10.6-9.5-13.1-15.1-2.9-6.4-2.9-18.8 0-25.2 2.5-5.5 8.1-12 13.1-15.1 8.3-5.1 20.6-5.9 29.4-2z"/></svg>